<svg xmlns="http://www.w3.org/2000/svg" version="1.1" preserveAspectRatio="xMidYMin" class="otrLogo" viewBox="0 0 180.39 100">
  <title>OTR Transporation</title>
  <path style="fill: #fff;" d="M149,59h3.47c.8-2.1,1.36-2.49,3.64-2.55l4.62-.14a3.67,3.67,0,0,1,3,1,3.06,3.06,0,0,1,2.74-1.17c1.2,0,2.4,0,3.59-.12a3.28,3.28,0,0,1,3.51,2.14,8.3,8.3,0,0,1,.64,2.65c.11,1.28,0,2.58,0,3.87a5.27,5.27,0,0,1-.94,2.62,1.86,1.86,0,0,1-1.55.84L155.66,71.1,137.9,74.34q-9.36,1.69-18.71,3.42-8.88,1.62-17.76,3.28c-4.11.77-8.21,1.59-12.32,2.35-2.17.4-4.36.69-6.53,1.09s-4.58,1-6.88,1.41-4.53.71-6.8,1.1c-3.71.65-7.41,1.33-11.12,2q-7.28,1.34-14.53,2.71-6,1.13-11.91,2.3L17,96.82,3,99.56c-.6.12-1.19.28-1.79.42A1.08,1.08,0,0,1,0,98.91v-20l26.39-2a7.27,7.27,0,0,1-.68-1,25.21,25.21,0,0,1-1.23-2.76.84.84,0,0,0-.86-.67c-2.5-.22-5-.48-7.49-.7a.79.79,0,0,1-.8-.6c-.32-1-.71-1.94-1.09-3,1.87.2,3.68.42,5.49.56s3.86.34,5.79.35c9,0,18,0,27,0h.63l1.53-7.26H28.77c0,1.17-.11,2.35-.14,3.54a2.58,2.58,0,0,1-1,2.4,2.91,2.91,0,0,1-.83-2.24c.07-1.22,0-2.44,0-3.78H18a30.4,30.4,0,0,0-.13,3.06,3,3,0,0,1-1.05,2.51A3,3,0,0,1,16,65.16c.09-1.12,0-2.25,0-3.43H14.25V61c1.23-.34,1.48-.68,1.57-1.94q.66-9.69,1.34-19.37a3.77,3.77,0,0,1,3-3.12l16-2.89c3.15-.57,6.29-1.15,9.45-1.7.42-.08.54-.32.66-.67,1-2.92,1.91-5.86,3-8.76A29.23,29.23,0,0,1,56.5,10.86,25.07,25.07,0,0,1,66.71,5.28C72.73,3.5,78.78,1.8,84.84.12A8.92,8.92,0,0,1,87.1,0h3.26V.81q0,27.32,0,54.63a2.68,2.68,0,0,1-1.75,2.64c1.15,0,2.3,0,3.45,0q7.77-.18,15.55-.4l18.3-.5,13.82-.33c2.1-.05,4.19-.1,6.29-.18A2.72,2.72,0,0,1,149,59ZM81,52.48c1.68,0,3.24,0,4.8,0,1.23,0,1.93-.56,1.93-1.78q0-14.52,0-29c0-.45-.16-.6-.56-.68l-8.88-1.67c-1.42-.27-2.1.21-2.37,1.66-.31,1.65-.58,3.31-.91,4.95a39,39,0,0,0-.9,8.63c.1,4,0,8.06,0,12.1v.73a4.53,4.53,0,0,1-.29-.45c-1.24-2.54-3.3-3.55-6.1-3.51-6.43.1-12.86,0-19.29.13a19.48,19.48,0,0,0-7.37,1.25c-2.56,1.07-5.05,2.31-7.58,3.46a2.13,2.13,0,0,0-1.26,2Q32,54,31.8,57.76c0,.45,0,.9,0,1.38l.38,0H54.92c.4,0,.53-.17.66-.52a33,33,0,0,1,1.32-3.25c1.2-2.38,3-3.85,5.85-3.64,2,.15,4,.09,6.08.16a38.19,38.19,0,0,1,5.36.31,9.51,9.51,0,0,1,8,7,20.6,20.6,0,0,1,.38,2.18c2.21-.08,4.4-.15,6.58-.24L104,60.51c1.4-.07,1.4-.06,1.35-1.45a1.8,1.8,0,0,0-.06-.31L84,59.44A9.73,9.73,0,0,0,81,52.48ZM71.71,33.16c1,0,1.34-.28,1.56-1.19.07-.29.12-.58.18-.88C74,28,74.58,25,75.11,21.87c.4-2.31-.51-3.39-2.83-3.36A62.53,62.53,0,0,0,55.41,21a52.2,52.2,0,0,0-5.33,2.17,1.91,1.91,0,0,0-1,1.29c-.51,1.64-1.09,3.26-1.64,4.9-.31.9-.6,1.81-.92,2.77h.42c1.67-.14,3.34-.34,5-.42,2.73-.14,5.47-.25,8.21-.28,3.15,0,6.3,0,9.45,0A1.94,1.94,0,0,1,71.71,33.16Zm-48.82,25h4.63c1.77,0,2.52-.76,2.58-2.5.07-2.41.18-4.83.29-7.24.15-3.35.32-6.71.46-10.06.06-1.43-.44-1.88-1.83-1.63-3.27.59-6.54,1.19-9.8,1.85a1.59,1.59,0,0,0-1.51,1.68c-.3,4.79-.67,9.58-1,14.37a12.19,12.19,0,0,0,0,2.34c.11.88.58,1.19,1.46,1.19Zm49,12.44-.13,0c0-.48,0-1,0-1.45-.09-4-2.55-6.35-6.51-6.28a6.71,6.71,0,0,0-6.7,6.22c-.08,1,0,1.94,0,2.9a6.16,6.16,0,0,0,5.89,6.92c3.67.32,5.75-.89,7-4.69A20.42,20.42,0,0,0,71.89,70.6Zm18-61.06A4.19,4.19,0,0,0,86.63,11a21.64,21.64,0,0,1-9.72,5.38c-1,.25-1.92.54-2.89.82v.16l15.85,3.05ZM112.67,67h.11c0,.55,0,1.11,0,1.66a5.14,5.14,0,0,0,1.13,3.25,3,3,0,0,0,5.37-.89,11,11,0,0,0,.58-3,8.77,8.77,0,0,0-.81-5c-1.22-2.13-3.64-2.57-5.06-.84a4.55,4.55,0,0,0-.91,1.74A28.49,28.49,0,0,0,112.67,67ZM107,71c0-.42,0-.77,0-1.11s-.07-.61-.58-.54c-.82.11-1.66.11-2.49.15l-8.64.42-2.59.18c-1.13.08-2.27.17-3.41.23s-2.37.09-3.55.17c-2,.12-4,.29-5.94.41-1.65.1-3.31.16-5,.24v2.23c.32,0,.59,0,.86,0,1-.09,1.94-.2,2.92-.27,2-.15,4.1-.28,6.15-.42l4-.3c1.65-.13,3.31-.28,5-.4,1.41-.1,2.82-.17,4.23-.28s3.09-.27,4.63-.39Zm21-5.25.19,0c0,.58,0,1.16,0,1.73a4.79,4.79,0,0,0,1.83,3.78,1.88,1.88,0,0,0,3.08-.8,3.59,3.59,0,0,0,.37-1.25c0-1.72.09-3.45,0-5.16a4.34,4.34,0,0,0-.62-1.81,2.23,2.23,0,0,0-2.06-1.39,2.13,2.13,0,0,0-2.13,1.47A27.25,27.25,0,0,0,128.05,65.76Zm30.89-2.15.15,0a12.83,12.83,0,0,0,0,1.52,3.5,3.5,0,0,0,.33,1.25,2.37,2.37,0,0,0,2.7,1.18,2.83,2.83,0,0,0,2-2.57,16.5,16.5,0,0,0,0-2.9A5,5,0,0,0,163.2,60c-.79-1.09-3.17-1.39-3.75.6A23.36,23.36,0,0,0,158.94,63.61Zm10.82-1h.06v.9a4.5,4.5,0,0,0,0,.9,6.12,6.12,0,0,0,.44,1.49,1.92,1.92,0,0,0,1.93.94,1.31,1.31,0,0,0,1.17-1.39c.08-1.55,0-3.11,0-4.66a2.22,2.22,0,0,0-.34-1,1.65,1.65,0,0,0-1.67-1.09A1.68,1.68,0,0,0,170,60.2,24,24,0,0,0,169.76,62.6ZM135,68.92l18.46-1.35c-.35-1.09-.38-1.15-.88-1.15-1.19,0-2.39,0-3.59,0-.14,0-.39.09-.4.14,0,.52-.42.41-.71.43l-12,.7C134.87,67.75,134.87,67.76,135,68.92ZM114.79,8c.53.37,1.08.71,1.57,1.11a15.84,15.84,0,0,1,4.32,6.71c1.74,4.41,2.16,9.07,2.31,13.74.11,3.54,0,7.09-.14,10.63a26.85,26.85,0,0,1-2,9.87,9.78,9.78,0,0,1-6.08,5.81c-.45.14-.91.25-1.37.37l0,.07,18.5-.32v-.28q-.06-10.06-.13-20.11c0-4.13-.07-8.25-.08-12.37,0-.46-.07-.7-.59-.79-1.13-.22-2.24-.53-3.35-.8l-3.63-.87c0-3.15,0-6.23,0-9.32a.73.73,0,0,0-.59-.85l-8.67-2.69ZM151.7,52.85q-.06-9.48-.13-18.94c0-2.7,0-5.4,0-8.09,0-2-.05-3.92-.1-5.88,0-.24-.11-.63-.28-.7-.57-.25-1.19-.39-1.88-.61v8.12L141.77,25c.08,10.31.15,20.52.23,30.7h9.7C151.7,54.64,151.71,53.74,151.7,52.85Zm-45,3.51-.33,0-.41,0a8.82,8.82,0,0,1-6.38-4,20.82,20.82,0,0,1-2.87-7.76,83.48,83.48,0,0,1-1.22-16c0-3.4.17-6.81.42-10.21a26.45,26.45,0,0,1,2-9.1c1.15-2.53,2.84-4.42,6-4.66l-10.7-3.4c.14,18.59.28,37,.42,55.54l13.07-.22Zm-.83-25c.16,3.68.27,7.36.48,11a10,10,0,0,0,1.06,4.45,2.34,2.34,0,0,0,2.24,1.21,2,2,0,0,0,2-1.29A4.63,4.63,0,0,0,112,45.4c.24-2.38.55-4.76.58-7.14.07-4.61,0-9.22-.1-13.82-.06-2.27-.35-4.54-.62-6.79a4.58,4.58,0,0,0-1.45-3c-1.49-1.31-3.25-.9-3.7,1a23.87,23.87,0,0,0-.67,5c-.1,3.57,0,7.14,0,10.71Zm74.57,22.86q-.34-12.63-.67-25.27a.69.69,0,0,0-.58-.77c-1.83-.55-3.65-1.14-5.47-1.71L172.33,26a6.59,6.59,0,0,0,.85.6c.3.21.6.43.88.67,2.54,2.21,4.06,4.89,3.86,8.37a5,5,0,0,1-4.74,5.06c-.38.05-.76.06-1.15.08a2,2,0,0,0,.75.38,6.26,6.26,0,0,1,4.9,5.66c.17,1.58.09,3.17.17,4.76a16.87,16.87,0,0,0,.35,2.65c.1.41.27,1,.9,1,.41,0,.81-.08,1.29-.14Zm-18.53,1.15h6.35c-.16-1.58-.35-3.08-.44-4.58s-.07-3-.16-4.48-.48-2.8-2.09-3.22c-1.19-.32-2.43-.43-3.66-.64Zm2.28-18.48a2.94,2.94,0,0,0,3.29-1.31,4.48,4.48,0,0,0-1.35-5.43,12.35,12.35,0,0,0-4.35-1.49v7.8C162.6,36.61,163.37,36.76,164.14,36.88Zm-77.63-3c0-3.36,0-6.72,0-10.09,0-.46-.21-.58-.6-.66l-7-1.34c-1.16-.22-1.71.12-1.93,1.27-.5,2.61-1,5.24-1.46,7.86a1.76,1.76,0,0,0,1.67,2.38c1.07.16,2.14.26,3.22.37,2,.23,4,.44,6.05.66A2.39,2.39,0,0,0,86.51,33.9ZM44.32,57.19V50.11l-10.72.72-.35,6.36Zm1.36-7v6.91h4.66V50.18ZM28,49.59l-9.27.76c-.87.07-.91.13-.67,1l10-.74c.88-.06.88-.07.79-1.07C28.47,49.59,28.22,49.57,28,49.59Zm.57,6.3V55c-1.36,0-2.66,0-4,0-2.09.06-4.18.2-6.26.24-.71,0-.82.31-.69.93Zm.08-16.78c-3.09.56-6.18,1.14-9.28,1.66-.71.11-.85.41-.67,1l10.6-1.74v-1C29,39.09,28.82,39.08,28.62,39.11ZM17.8,52.87l0,.89c.33,0,.61,0,.88,0l9.24-.47c.86,0,.86,0,.79-1.07Zm11.1-4.93v-1L18.15,48.06,18,49Zm-.16-6.2c-3.2.48-6.39,1-9.6,1.45-.72.1-.78.43-.67,1L29.13,42.7l.05-1A3.08,3.08,0,0,0,28.74,41.74Zm0,2.59-9.84,1.25c-.68.08-.67.46-.55,1a1.39,1.39,0,0,0,.24,0c3.24-.38,6.48-.79,9.72-1.15.71-.07.93-.36.73-1.08C28.88,44.34,28.79,44.32,28.7,44.33Z"/>
</svg>
